<?xml version="1.0" encoding="utf-8"?>
<!-- Generator: Adobe Illustrator 21.0.2, SVG Export Plug-In . SVG Version: 6.00 Build 0)  -->
<svg version="1.1" id="Layer_1" xmlns="http://www.w3.org/2000/svg" xmlns:xlink="http://www.w3.org/1999/xlink" x="0px" y="0px"
	 viewBox="0 0 178 82.8" enable-background="new 0 0 178 82.8" xml:space="preserve">
<g display="none">
	<path display="inline" d="M328.8,145.5h-9.3l-9-26.7h8.6l5.2,20.6l5.4-20.6h8L328.8,145.5z"/>
	<path display="inline" d="M356.8,139.5c0.9-0.4,1.9-0.9,3-1.7l3.5,5c-1.3,1.1-2.7,1.9-4.4,2.6c-1.7,0.6-3.5,1-5.5,1
		c-2.8,0-5.3-0.6-7.4-1.8c-2.1-1.2-3.6-2.8-4.7-4.9c-1.1-2.1-1.7-4.6-1.7-7.3s0.6-5.3,1.7-7.4c1.1-2.2,2.8-3.9,4.8-5.1
		c2.1-1.2,4.5-1.9,7.4-1.9c2,0,3.7,0.3,5.3,0.8c1.6,0.6,3,1.4,4.4,2.5l-3.4,4.8c-1.9-1.3-3.9-2-6-2c-4,0-6,2.8-6,8.3
		c0,2.8,0.5,4.8,1.6,6c1,1.2,2.5,1.8,4.4,1.8C354.9,140.1,355.9,139.9,356.8,139.5z"/>
	<path display="inline" d="M393.8,119.8c0.9,1.3,1.3,3.2,1.3,6v19.7h-6.8v-18.8c0-1-0.1-1.6-0.3-2c-0.2-0.4-0.5-0.6-1-0.6
		c-0.9,0-1.9,0.6-2.8,1.8v19.6h-5.6v-18.8c0-1-0.1-1.6-0.3-2s-0.5-0.6-1-0.6c-0.9,0-1.9,0.6-2.8,1.8v19.6h-6.9v-26.7h5.8l0.6,2.6
		c0.9-1.2,1.7-2.1,2.6-2.6c0.9-0.6,1.8-0.8,3-0.8c1,0,1.9,0.3,2.6,0.8c0.7,0.5,1.2,1.3,1.5,2.4c1.8-2.1,3.8-3.2,5.9-3.2
		C391.5,118,392.9,118.6,393.8,119.8z"/>
	<path display="inline" d="M413.9,140.1c0.8-0.4,1.2-1,1.2-1.9c0-0.6-0.2-1.1-0.5-1.5c-0.3-0.4-0.9-0.7-1.8-1.1
		c-0.9-0.4-2.2-0.8-4.1-1.3c-2.7-0.7-4.7-1.7-6.1-2.9c-1.4-1.3-2.1-3-2.1-5.2c0-2.4,1-4.4,3-6c2-1.5,4.9-2.3,8.5-2.3
		c4.2,0,7.8,1.1,10.8,3.3l-3.2,4.7c-2.4-1.5-4.9-2.3-7.4-2.3c-1.3,0-2.3,0.2-2.9,0.5c-0.6,0.3-0.9,0.9-0.9,1.6
		c0,0.5,0.2,0.9,0.5,1.2c0.3,0.3,0.9,0.6,1.8,1c0.9,0.3,2.2,0.8,4,1.3c1.9,0.5,3.5,1.1,4.7,1.8c1.2,0.6,2.2,1.5,2.8,2.6
		c0.7,1.1,1,2.4,1,4.1c0,1.9-0.6,3.5-1.7,4.8c-1.1,1.3-2.7,2.3-4.6,3c-1.9,0.7-4,1-6.3,1c-2.5,0-4.7-0.4-6.7-1.1
		c-2-0.7-3.7-1.7-5.1-3l4-4.5c2.4,1.9,5,2.8,7.8,2.8C412.1,140.7,413.2,140.5,413.9,140.1z"/>
	<path display="inline" fill="#8B79F2" d="M453.3,128.9v5.7l-19.6,12.2l-3.6-5.4l16.3-9.6l-16.3-9.3l3.5-5.7L453.3,128.9z"/>
</g>
<g display="none">
	<path display="inline" fill="#4720A5" d="M183.3,43.8v55.1c0,0-29.9-7.6-28.9-28.4C161.7,45.8,183.3,43.8,183.3,43.8z"/>
	<path display="inline" fill="#624DA3" d="M183.3,43.8v55.1c0,0,29.9-7.6,28.9-28.4C204.9,45.8,183.3,43.8,183.3,43.8z"/>
	<path display="inline" d="M183.3,40.7c-40.9,20.4-40.9,40.9,0,61.3C224.2,81.6,224.2,61.1,183.3,40.7z M183.3,98.9
		c-36.7-18.4-36.7-36.7,0-55.1C220,62.2,220,80.5,183.3,98.9z"/>
	<text transform="matrix(1 0 0 1 227.1143 96.0888)" display="inline" font-family="'Calibri'" font-size="66.8425px">Logo</text>
</g>
<g>
	<path d="M37.3,23.9h8.3l-9.9,34.3h-10l-9.9-34.3h8.6l6.4,28L37.3,23.9z"/>
	<path d="M67.8,24c1.7,0.6,3.3,1.6,4.9,2.8l-4,4.8c-2.1-1.7-4.4-2.5-6.8-2.5c-2.3,0-4.2,1-5.7,3S54,37,54,41c0,4,0.7,7,2.1,8.9
		c1.4,1.9,3.4,2.9,5.8,2.9c1.5,0,2.8-0.3,3.9-0.8c1.1-0.5,2.3-1.3,3.5-2.3l3.7,4.7c-3,3.1-6.9,4.7-11.5,4.7c-3.1,0-5.9-0.7-8.3-2.1
		c-2.4-1.4-4.3-3.4-5.6-6.2c-1.4-2.7-2-6-2-9.8c0-3.7,0.7-6.9,2.1-9.7c1.4-2.7,3.3-4.8,5.7-6.2c2.4-1.4,5.2-2.1,8.2-2.1
		C64,23,66.1,23.3,67.8,24z"/>
	<path d="M102.5,58.2h-7.1L95,43.5c0-0.7,0-1.7,0-3c0-1.6,0-3.3,0.1-4.8c0.1-1.6,0.2-3.2,0.3-4.9l-3.9,21.6h-6.1l-4.2-21.6
		c0.4,3.8,0.5,7.2,0.5,10.2l0,2.6l-0.2,14.6h-7l1.9-34.3h8.4l3.8,22.2l3.6-22.2h8.4L102.5,58.2z"/>
	<path d="M129.8,53.9c-1.1,1.7-2.7,2.9-4.8,3.8c-2.1,0.9-4.6,1.4-7.5,1.4c-5.7,0-10.2-1.6-13.6-5l4.1-4.6c2.6,2.3,5.7,3.5,9.3,3.5
		c1.7,0,3.1-0.4,4.1-1.1s1.6-1.8,1.6-3.1c0-1.3-0.4-2.2-1.3-2.9c-0.9-0.7-2.5-1.4-4.9-2.2c-4-1.2-6.9-2.7-8.6-4.3
		c-1.7-1.6-2.5-3.8-2.5-6.4c0-2,0.6-3.8,1.7-5.3c1.1-1.5,2.7-2.7,4.7-3.5c2-0.8,4.1-1.2,6.6-1.2c5,0,9.1,1.5,12.3,4.5l-3.8,4.4
		c-1.2-1-2.4-1.7-3.7-2.2c-1.3-0.5-2.7-0.7-4.1-0.7c-1.6,0-2.8,0.3-3.7,0.9c-0.9,0.6-1.4,1.4-1.4,2.5c0,0.7,0.2,1.3,0.6,1.8
		c0.4,0.5,1.1,1,2.1,1.4c1,0.4,2.4,0.9,4.3,1.5c3.5,1.1,6.1,2.4,7.8,4.1c1.7,1.7,2.5,4,2.5,7C131.4,50.3,130.9,52.2,129.8,53.9z"/>
	<path fill="#6C49B7" d="M160.5,39.6v6.2l-21.4,13.3l-3.9-5.9L153,42.7l-17.8-10.1l3.8-6.2L160.5,39.6z"/>
</g>
<g>
	<path fill="#C6C6C6" d="M39.5,26.2h8.3l-9.9,34.3h-10l-9.9-34.3h8.6l6.4,28L39.5,26.2z"/>
	<path fill="#C6C6C6" d="M70,26.2c1.7,0.6,3.3,1.6,4.9,2.8l-4,4.8c-2.1-1.7-4.4-2.5-6.8-2.5c-2.3,0-4.2,1-5.7,3s-2.2,5-2.2,9
		c0,4,0.7,7,2.1,8.9c1.4,1.9,3.4,2.9,5.8,2.9c1.5,0,2.8-0.3,3.9-0.8c1.1-0.5,2.3-1.3,3.5-2.3l3.7,4.7c-3,3.1-6.9,4.7-11.5,4.7
		c-3.1,0-5.9-0.7-8.3-2.1c-2.4-1.4-4.3-3.4-5.6-6.2c-1.4-2.7-2-6-2-9.8c0-3.7,0.7-6.9,2.1-9.7c1.4-2.7,3.3-4.8,5.7-6.2
		c2.4-1.4,5.2-2.1,8.2-2.1C66.2,25.3,68.3,25.6,70,26.2z"/>
	<path fill="#C6C6C6" d="M104.7,60.5h-7.1l-0.4-14.7c0-0.7,0-1.7,0-3c0-1.6,0-3.3,0.1-4.8c0.1-1.6,0.2-3.2,0.3-4.9l-3.9,21.6h-6.1
		L83.4,33c0.4,3.8,0.5,7.2,0.5,10.2l0,2.6l-0.2,14.6h-7l1.9-34.3H87l3.8,22.2l3.6-22.2h8.4L104.7,60.5z"/>
	<path fill="#C6C6C6" d="M132,56.1c-1.1,1.7-2.7,2.9-4.8,3.8c-2.1,0.9-4.6,1.4-7.5,1.4c-5.7,0-10.2-1.6-13.6-5l4.1-4.6
		c2.6,2.3,5.7,3.5,9.3,3.5c1.7,0,3.1-0.4,4.1-1.1s1.6-1.8,1.6-3.1c0-1.3-0.4-2.2-1.3-2.9c-0.9-0.7-2.5-1.4-4.9-2.2
		c-4-1.2-6.9-2.7-8.6-4.3c-1.7-1.6-2.5-3.8-2.5-6.4c0-2,0.6-3.8,1.7-5.3c1.1-1.5,2.7-2.7,4.7-3.5c2-0.8,4.1-1.2,6.6-1.2
		c5,0,9.1,1.5,12.3,4.5l-3.8,4.4c-1.2-1-2.4-1.7-3.7-2.2c-1.3-0.5-2.7-0.7-4.1-0.7c-1.6,0-2.8,0.3-3.7,0.9c-0.9,0.6-1.4,1.4-1.4,2.5
		c0,0.7,0.2,1.3,0.6,1.8c0.4,0.5,1.1,1,2.1,1.4c1,0.4,2.4,0.9,4.3,1.5c3.5,1.1,6.1,2.4,7.8,4.1c1.7,1.7,2.5,4,2.5,7
		C133.7,52.6,133.1,54.5,132,56.1z"/>
	<path fill="#C6C6C6" d="M162.8,41.8V48l-21.4,13.3l-3.9-5.9l17.8-10.5l-17.8-10.1l3.8-6.2L162.8,41.8z"/>
</g>
<g>
	<path d="M37.3,23.9h8.3l-9.9,34.3h-10l-9.9-34.3h8.6l6.4,28L37.3,23.9z"/>
	<path d="M67.8,24c1.7,0.6,3.3,1.6,4.9,2.8l-4,4.8c-2.1-1.7-4.4-2.5-6.8-2.5c-2.3,0-4.2,1-5.7,3S54,37,54,41c0,4,0.7,7,2.1,8.9
		c1.4,1.9,3.4,2.9,5.8,2.9c1.5,0,2.8-0.3,3.9-0.8c1.1-0.5,2.3-1.3,3.5-2.3l3.7,4.7c-3,3.1-6.9,4.7-11.5,4.7c-3.1,0-5.9-0.7-8.3-2.1
		c-2.4-1.4-4.3-3.4-5.6-6.2c-1.4-2.7-2-6-2-9.8c0-3.7,0.7-6.9,2.1-9.7c1.4-2.7,3.3-4.8,5.7-6.2c2.4-1.4,5.2-2.1,8.2-2.1
		C64,23,66.1,23.3,67.8,24z"/>
	<path d="M102.5,58.2h-7.1L95,43.5c0-0.7,0-1.7,0-3c0-1.6,0-3.3,0.1-4.8c0.1-1.6,0.2-3.2,0.3-4.9l-3.9,21.6h-6.1l-4.2-21.6
		c0.4,3.8,0.5,7.2,0.5,10.2l0,2.6l-0.2,14.6h-7l1.9-34.3h8.4l3.8,22.2l3.6-22.2h8.4L102.5,58.2z"/>
	<path d="M129.8,53.9c-1.1,1.7-2.7,2.9-4.8,3.8c-2.1,0.9-4.6,1.4-7.5,1.4c-5.7,0-10.2-1.6-13.6-5l4.1-4.6c2.6,2.3,5.7,3.5,9.3,3.5
		c1.7,0,3.1-0.4,4.1-1.1s1.6-1.8,1.6-3.1c0-1.3-0.4-2.2-1.3-2.9c-0.9-0.7-2.5-1.4-4.9-2.2c-4-1.2-6.9-2.7-8.6-4.3
		c-1.7-1.6-2.5-3.8-2.5-6.4c0-2,0.6-3.8,1.7-5.3c1.1-1.5,2.7-2.7,4.7-3.5c2-0.8,4.1-1.2,6.6-1.2c5,0,9.1,1.5,12.3,4.5l-3.8,4.4
		c-1.2-1-2.4-1.7-3.7-2.2c-1.3-0.5-2.7-0.7-4.1-0.7c-1.6,0-2.8,0.3-3.7,0.9c-0.9,0.6-1.4,1.4-1.4,2.5c0,0.7,0.2,1.3,0.6,1.8
		c0.4,0.5,1.1,1,2.1,1.4c1,0.4,2.4,0.9,4.3,1.5c3.5,1.1,6.1,2.4,7.8,4.1c1.7,1.7,2.5,4,2.5,7C131.4,50.3,130.9,52.2,129.8,53.9z"/>
	<path fill="#6C49B7" d="M160.5,39.6v6.2l-21.4,13.3l-3.9-5.9L153,42.7l-17.8-10.1l3.8-6.2L160.5,39.6z"/>
</g>
</svg>
